<?xml version="1.0" encoding="UTF-8" standalone="no"?>
<svg
   xmlns:dc="http://purl.org/dc/elements/1.1/"
   xmlns:cc="http://creativecommons.org/ns#"
   xmlns:rdf="http://www.w3.org/1999/02/22-rdf-syntax-ns#"
   xmlns:svg="http://www.w3.org/2000/svg"
   xmlns="http://www.w3.org/2000/svg"
   xmlns:sodipodi="http://sodipodi.sourceforge.net/DTD/sodipodi-0.dtd"
   xmlns:inkscape="http://www.inkscape.org/namespaces/inkscape"
   sodipodi:docname="KYC_logo.svg"
   inkscape:version="1.0beta2 (2b71d25, 2019-12-03)"
   id="svg8"
   version="1.1"
   viewBox="0 0 118 44"
   height="44mm"
   width="118mm">
  <defs
     id="defs2" />
  <sodipodi:namedview
     inkscape:window-maximized="0"
     inkscape:window-y="23"
     inkscape:window-x="-1"
     inkscape:window-height="767"
     inkscape:window-width="1440"
     showgrid="false"
     inkscape:document-rotation="0"
     inkscape:current-layer="layer1"
     inkscape:document-units="mm"
     inkscape:cy="431.42857"
     inkscape:cx="214.28571"
     inkscape:zoom="0.35"
     inkscape:pageshadow="2"
     inkscape:pageopacity="0.0"
     borderopacity="1.0"
     bordercolor="#666666"
     pagecolor="#ffffff"
     id="base" />
  <metadata
     id="metadata5">
    <rdf:RDF>
      <cc:Work
         rdf:about="">
        <dc:format>image/svg+xml</dc:format>
        <dc:type
           rdf:resource="http://purl.org/dc/dcmitype/StillImage" />
        <dc:title></dc:title>
      </cc:Work>
    </rdf:RDF>
  </metadata>
  <g
     id="layer1"
     inkscape:groupmode="layer"
     inkscape:label="Layer 1">
    <g
       transform="translate(-30.994048,-83.154762)"
       id="g1062">
      <g
         id="g1054"
         style="fill:#db6400;fill-opacity:1"
         transform="translate(0,0.79703639)">
        <g
           style="font-style:normal;font-variant:normal;font-weight:normal;font-stretch:normal;font-size:40.7177px;line-height:1.25;font-family:Krungthep;-inkscape-font-specification:'Krungthep Normal';font-variant-ligatures:normal;font-variant-caps:normal;font-variant-numeric:normal;font-variant-east-asian:normal;fill:#db6400;fill-opacity:1;stroke:none;stroke-width:1.01794"
           id="text921"
           aria-label="KYC">
          <path
             sodipodi:nodetypes="cccccccccccc"
             inkscape:connector-curvature="0"
             id="path959"
             style="font-style:normal;font-variant:normal;font-weight:normal;font-stretch:normal;font-size:40.7177px;font-family:Krungthep;-inkscape-font-specification:'Krungthep Normal';font-variant-ligatures:normal;font-variant-caps:normal;font-variant-numeric:normal;font-variant-east-asian:normal;fill:#db6400;fill-opacity:1;stroke-width:1.01794"
             d="M 75.147263,120.36749 V 89.829217 h 6.77568 V 102.29901 L 92.897636,89.829217 h 6.012223 l -13.58317,15.269133 13.58317,15.26914 h -6.80749 L 81.922943,108.5021 v 11.86539 z" />
          <path
             id="path961"
             style="font-style:normal;font-variant:normal;font-weight:normal;font-stretch:normal;font-size:40.7177px;font-family:Krungthep;-inkscape-font-specification:'Krungthep Normal';font-variant-ligatures:normal;font-variant-caps:normal;font-variant-numeric:normal;font-variant-east-asian:normal;fill:#db6400;fill-opacity:1;stroke-width:1.01794"
             d="m 107.69872,120.36749 v -13.58317 q -6.77568,-0.77936 -6.77568,-6.77568 V 89.829217 h 6.77568 v 10.179423 q 0,1.38377 1.00204,2.40171 1.00203,1.00204 2.40171,1.00204 1.38376,0 2.3858,-1.00204 1.01794,-1.01794 1.01794,-2.40171 V 89.829217 h 6.77568 v 10.179423 q 0,5.99632 -6.77568,6.77568 v 13.58317 z"
             inkscape:connector-curvature="0" />
          <path
             sodipodi:nodetypes="csscsscssccsscsscsscc"
             inkscape:connector-curvature="0"
             id="path963"
             style="font-style:normal;font-variant:normal;font-weight:normal;font-stretch:normal;font-size:40.7177px;font-family:Krungthep;-inkscape-font-specification:'Krungthep Normal';font-variant-ligatures:normal;font-variant-caps:normal;font-variant-numeric:normal;font-variant-east-asian:normal;fill:#db6400;fill-opacity:1;stroke-width:1.01794"
             d="m 144.69635,113.59181 c -0.2969,4.51712 -2.55546,6.77568 -6.77568,6.77568 h -6.80749 c -1.85562,0 -3.45146,-0.66272 -4.78752,-1.98817 -1.32544,-1.33605 -1.98816,-2.93188 -1.98816,-4.78751 V 96.604897 c 0,-1.823814 0.65212,-3.409047 1.95635,-4.7557 1.31485,-1.346653 2.92129,-2.01998 4.81933,-2.01998 h 6.80749 c 4.26264,0 6.5212,2.25856 6.77568,6.77568 h -3.40375 c -0.26508,-2.247957 -1.38906,-3.371935 -3.37193,-3.371935 h -3.40375 c -0.93311,0 -1.73368,0.334012 -2.40171,1.002037 -0.66802,0.657421 -1.00203,1.447387 -1.00203,2.369898 v 16.986913 c 0,0.91191 0.32871,1.70187 0.98613,2.3699 0.66802,0.66803 1.47389,1.00204 2.41761,1.00204 h 3.40375 c 1.99347,0 3.11745,-1.12398 3.37193,-3.37194 z" />
        </g>
      </g>
      <path
         style="fill:#16697a;fill-opacity:1;stroke-width:0.0498978"
         d="m 49.07689,124.94904 c -0.109775,-0.0261 -0.39045,-0.0921 -0.623722,-0.14663 -0.999002,-0.2335 -2.181293,-0.60862 -2.831153,-0.89828 -0.116336,-0.0519 -0.222327,-0.0943 -0.235535,-0.0943 -0.06903,0 -1.373361,-0.62657 -1.84824,-0.88785 -0.914748,-0.50331 -2.443081,-1.53615 -2.944758,-1.99005 -0.05532,-0.0501 -0.234953,-0.20286 -0.399182,-0.33956 -0.481555,-0.40083 -1.397264,-1.30885 -1.862794,-1.84716 -0.237335,-0.27444 -0.44459,-0.5102 -0.460567,-0.52393 -0.05691,-0.0489 -0.930448,-1.2277 -1.127749,-1.52188 -1.12118,-1.67168 -2.044695,-3.68045 -2.56929,-5.58854 -0.03018,-0.10978 -0.07356,-0.26696 -0.0964,-0.34929 -0.101796,-0.367 -0.242475,-1.01316 -0.255287,-1.1726 -0.01395,-0.17353 -0.01253,-0.17481 0.220461,-0.2016 0.128973,-0.0148 0.979933,-0.0219 1.891023,-0.0158 1.295618,0.009 1.669295,0.0255 1.71513,0.0769 0.03223,0.0361 0.08713,0.18918 0.122003,0.34012 0.06992,0.30267 0.09792,0.39951 0.274277,0.94853 1.584429,4.93261 5.77656,8.91013 10.782291,10.23031 0.192106,0.0507 0.400066,0.10737 0.462134,0.12601 l 0.11285,0.0339 -0.01306,1.92342 c -0.0084,1.23082 -0.03102,1.92744 -0.06295,1.9346 -0.02744,0.006 -0.139714,-0.0102 -0.249489,-0.0363 z m 7.343285,0.0251 c -0.0183,-0.0183 -0.03327,-0.89138 -0.03327,-1.94019 v -1.90693 l 0.11227,-0.0346 c 0.06175,-0.0191 0.190859,-0.0539 0.286912,-0.0773 1.478588,-0.36158 3.015085,-1.02602 4.490798,-1.94197 1.250238,-0.77601 2.793256,-2.15454 3.774328,-3.37198 0.387349,-0.48067 1.063179,-1.45343 1.334397,-1.92067 0.266288,-0.45874 0.865885,-1.68535 1.024434,-2.09571 0.302347,-0.78253 0.348927,-0.92066 0.504788,-1.49693 0.08536,-0.3156 0.182546,-0.62996 0.215974,-0.69857 l 0.06078,-0.12474 1.859309,0.0111 c 1.022621,0.006 1.880664,0.0243 1.906769,0.0404 0.07486,0.0463 -0.02266,0.52046 -0.39992,1.94437 -0.07272,0.27448 -0.505756,1.53317 -0.598975,1.74102 -0.05057,0.11275 -0.133383,0.30601 -0.184045,0.42949 -0.183058,0.44615 -0.826898,1.71308 -1.120009,2.20391 -0.929814,1.55701 -1.717796,2.56554 -3.036922,3.8869 -1.369734,1.37207 -2.691581,2.37416 -4.318,3.27347 -0.498999,0.27591 -1.82457,0.9147 -1.898136,0.9147 -0.01321,0 -0.119199,0.0424 -0.235536,0.0943 -0.69886,0.31149 -2.126968,0.75546 -3.080642,0.9577 -0.150941,0.032 -0.339537,0.0778 -0.419102,0.10188 -0.173665,0.0524 -0.202941,0.0537 -0.246201,0.0104 z m -4.823449,-7.60768 c -1.547348,-0.20883 -2.682583,-0.5511 -3.941922,-1.18848 -0.73648,-0.37275 -1.995909,-1.20054 -1.995909,-1.31186 0,-0.0629 2.442666,-2.53274 2.504856,-2.53274 0.02067,0 0.268255,0.13824 0.550201,0.30721 0.281948,0.16897 0.658582,0.3721 0.836967,0.45141 0.178384,0.0793 0.369243,0.16412 0.424131,0.18849 0.2468,0.10954 0.948653,0.31601 1.347239,0.39633 0.770328,0.15522 1.976374,0.20756 2.504906,0.1087 0.131708,-0.0246 0.396648,-0.0717 0.588754,-0.10452 0.388302,-0.0664 0.448131,-0.0827 1.118751,-0.3044 0.48697,-0.161 1.131034,-0.47517 1.712045,-0.83512 0.184749,-0.11446 0.353319,-0.2081 0.3746,-0.2081 0.02128,0 0.608115,0.56975 1.304076,1.26611 l 1.265385,1.26612 -0.367592,0.26849 c -1.127924,0.82385 -2.417287,1.48138 -3.511151,1.79056 -0.848932,0.23996 -1.231377,0.31955 -2.045807,0.42579 -0.600869,0.0784 -2.139057,0.0876 -2.66953,0.016 z m -8.190704,-4.89688 c -0.512604,-0.78402 -0.779608,-1.26032 -1.041378,-1.85768 -0.06013,-0.13721 -0.139312,-0.31685 -0.175957,-0.39918 -0.07432,-0.16697 -0.310152,-0.85976 -0.377932,-1.11022 -0.118724,-0.43871 -0.148684,-0.56226 -0.21478,-0.88569 -0.182285,-0.89196 -0.202169,-1.12281 -0.202005,-2.34519 1.5e-4,-1.19133 0.01505,-1.37356 0.179428,-2.1955 0.326217,-1.63123 0.813218,-2.80012 1.78224,-4.277675 0.268593,-0.409548 0.515713,-0.735402 0.558163,-0.735992 0.08141,-0.0011 2.544187,2.440987 2.542391,2.521067 -5.66e-4,0.0262 -0.103462,0.20479 -0.228611,0.39689 -0.554412,0.85104 -0.935534,1.8289 -1.1766,3.01882 -0.08717,0.4303 -0.08697,2.15729 2.83e-4,2.59468 0.235722,1.18128 0.626021,2.16139 1.244552,3.12529 0.08878,0.13835 0.161417,0.26719 0.161417,0.28631 0,0.0605 -2.501594,2.52628 -2.561953,2.52522 -0.03172,-5.7e-4 -0.2519,-0.29807 -0.489283,-0.66115 z m 17.209348,-0.57317 c -0.704365,-0.70479 -1.234595,-1.27418 -1.234595,-1.32578 0,-0.0497 0.06466,-0.18441 0.143679,-0.29927 0.243999,-0.35464 0.487333,-0.80437 0.679684,-1.25618 0.04673,-0.10978 0.104366,-0.2445 0.128069,-0.29939 0.04619,-0.10695 0.221864,-0.68585 0.295272,-0.97301 0.196039,-0.76684 0.25979,-1.70967 0.173758,-2.56973 -0.03843,-0.38421 -0.08324,-0.7547 -0.09957,-0.82331 -0.01633,-0.0686 -0.0535,-0.22579 -0.0826,-0.34929 -0.172557,-0.73241 -0.560556,-1.64109 -1.030185,-2.41266 -0.11446,-0.18805 -0.208109,-0.37341 -0.208109,-0.41191 0,-0.0884 2.422335,-2.515382 2.50711,-2.511951 0.130749,0.0053 0.896762,1.18033 1.31792,2.021651 0.917336,1.83249 1.366688,3.99088 1.221227,5.86596 -0.08218,1.05937 -0.168382,1.55455 -0.454926,2.61333 -0.158431,0.5854 -0.439314,1.28891 -0.78693,1.97096 -0.295545,0.57989 -1.20589,1.99319 -1.284939,1.99485 -0.02765,5.7e-4 -0.60584,-0.55484 -1.284867,-1.23427 z m -26.799068,-9.5301 c -0.02356,-0.0388 0.03077,-0.38929 0.11409,-0.73599 0.02637,-0.10978 0.06256,-0.26696 0.0804,-0.34929 0.103199,-0.47626 0.574672,-2.006609 0.672344,-2.182347 0.02648,-0.04765 0.04815,-0.109648 0.04815,-0.137763 0,-0.02812 0.04276,-0.146303 0.09501,-0.26264 0.05226,-0.116337 0.136458,-0.312545 0.187117,-0.436018 0.158006,-0.385096 0.793314,-1.650533 1.064691,-2.120698 1.24886,-2.163669 3.114766,-4.257482 5.164841,-5.7957 1.079613,-0.810056 1.76777,-1.234508 2.993867,-1.846601 1.546155,-0.771874 2.80944,-1.21107 4.774855,-1.660036 0.428522,-0.09789 0.389561,-0.286225 0.389561,1.883088 v 1.936579 l -0.261964,0.063 c -0.144079,0.03465 -0.318098,0.0812 -0.386707,0.103442 -0.06861,0.02224 -0.225787,0.06874 -0.349284,0.103323 -0.425187,0.119066 -0.832181,0.257393 -1.172598,0.398535 -0.05489,0.02276 -0.200838,0.08201 -0.324335,0.131672 -0.269762,0.10848 -1.683015,0.813688 -1.988265,0.992136 -1.080479,0.631645 -2.079393,1.425696 -3.136217,2.493018 -1.273044,1.285691 -2.053818,2.371241 -2.853152,3.966871 -0.535523,1.069019 -0.921653,2.090729 -1.135514,3.004629 -0.04678,0.19991 -0.106429,0.39154 -0.132554,0.42584 -0.03652,0.048 -0.483507,0.0624 -1.934558,0.0624 -1.037882,0 -1.897281,-0.0168 -1.909776,-0.0374 z m 34.319726,-0.0154 c -0.01836,-0.0297 -0.07753,-0.22644 -0.131499,-0.4372 -0.137802,-0.53811 -0.167779,-0.64308 -0.280433,-0.98197 -0.280262,-0.84309 -0.881698,-2.174334 -1.273689,-2.819225 -0.108429,-0.178384 -0.27401,-0.453821 -0.367962,-0.61208 C 65.688474,96.836798 64.724379,95.63196 64.003162,94.901938 62.55538,93.43648 60.664155,92.171327 58.806951,91.425883 58.156131,91.164658 57.612908,90.98117 57.010632,90.81913 56.900857,90.78959 56.721225,90.73822 56.61145,90.70497 l -0.199591,-0.06046 -0.01306,-1.929392 c -0.01033,-1.526742 1e-4,-1.929382 0.0499,-1.92935 0.103498,6.5e-5 0.722492,0.136894 1.35577,0.299689 0.780745,0.200705 1.992114,0.606269 2.574264,0.86186 0.15094,0.06627 0.374883,0.163219 0.497649,0.215442 0.701303,0.298326 2.029397,1.036173 2.843546,1.579787 0.334402,0.223283 1.284229,0.916372 1.349192,0.984506 0.01372,0.01439 0.1709,0.148929 0.349285,0.298971 1.027903,0.864588 2.158481,2.051406 2.924253,3.069724 0.516186,0.686417 0.584293,0.783516 0.948847,1.352704 0.656647,1.025247 1.223027,2.126063 1.66639,3.238801 0.147669,0.370613 0.549563,1.555018 0.643085,1.895198 0.120438,0.4381 0.158322,0.58502 0.250888,0.97301 0.05565,0.23327 0.107239,0.51395 0.114639,0.62372 l 0.01347,0.19959 -1.90528,0.0131 c -1.32589,0.009 -1.915428,-0.003 -1.93865,-0.0409 z M 46.929821,98.214836 c -0.684033,-0.683722 -1.250807,-1.264458 -1.259497,-1.290525 -0.01859,-0.05575 0.216921,-0.245093 0.742719,-0.59712 0.888395,-0.59479 2.044681,-1.16242 2.888387,-1.417934 0.807645,-0.244591 1.245051,-0.34464 2.04146,-0.466944 0.539857,-0.08291 2.5224,-0.09985 2.952467,-0.02523 0.148657,0.02579 0.43869,0.07393 0.644518,0.106966 0.911848,0.146369 1.879792,0.449554 2.786248,0.872726 0.201413,0.09403 0.373661,0.17096 0.382772,0.17096 0.09086,0 1.847669,1.118714 2.00929,1.279491 0.05171,0.05144 -0.177821,0.30507 -1.211636,1.338886 -1.423566,1.423566 -1.255631,1.323588 -1.706515,1.01595 -0.789837,-0.538911 -1.993979,-0.989621 -3.164071,-1.184315 -0.420379,-0.06995 -1.802093,-0.07122 -2.233893,-0.002 -1.152237,0.184564 -1.947675,0.460691 -2.874873,0.997978 -0.21955,0.127223 -0.478943,0.279235 -0.57643,0.337804 l -0.177248,0.106489 z"
         id="path1048"
         inkscape:connector-curvature="0" />
    </g>
  </g>
</svg>
